<mxfile host="app.diagrams.net" modified="2024-03-04T20:20:35.078Z" agent="Mozilla/5.0 (X11; Linux x86_64; rv:123.0) Gecko/20100101 Firefox/123.0" etag="i8Vps1xSpxJAoncoq_VS" scale="1" border="0" version="24.0.1" type="device">
  <diagram name="Page-1" id="bHCJ8cg3ubtAj66GZbE8">
    <mxGraphModel dx="2260" dy="1895" grid="1" gridSize="10" guides="1" tooltips="1" connect="1" arrows="1" fold="1" page="1" pageScale="1" pageWidth="850" pageHeight="1100" math="0" shadow="0">
      <root>
        <mxCell id="0" />
        <mxCell id="1" parent="0" />
        <mxCell id="0l7i1u_6Aww9R5WyrGbd-29" value="VPC" style="points=[[0,0],[0.25,0],[0.5,0],[0.75,0],[1,0],[1,0.25],[1,0.5],[1,0.75],[1,1],[0.75,1],[0.5,1],[0.25,1],[0,1],[0,0.75],[0,0.5],[0,0.25]];outlineConnect=0;gradientColor=none;html=1;whiteSpace=wrap;fontSize=12;fontStyle=0;container=1;pointerEvents=0;collapsible=0;recursiveResize=0;shape=mxgraph.aws4.group;grIcon=mxgraph.aws4.group_vpc2;strokeColor=#8C4FFF;fillColor=none;verticalAlign=top;align=left;spacingLeft=30;fontColor=#AAB7B8;dashed=0;movable=1;resizable=1;rotatable=1;deletable=1;editable=1;locked=0;connectable=1;" parent="1" vertex="1">
          <mxGeometry x="-90" y="90" width="1200" height="610" as="geometry" />
        </mxCell>
        <mxCell id="0l7i1u_6Aww9R5WyrGbd-30" value="AWS Cloud" style="points=[[0,0],[0.25,0],[0.5,0],[0.75,0],[1,0],[1,0.25],[1,0.5],[1,0.75],[1,1],[0.75,1],[0.5,1],[0.25,1],[0,1],[0,0.75],[0,0.5],[0,0.25]];outlineConnect=0;gradientColor=none;html=1;whiteSpace=wrap;fontSize=12;fontStyle=0;container=1;pointerEvents=0;collapsible=0;recursiveResize=0;shape=mxgraph.aws4.group;grIcon=mxgraph.aws4.group_aws_cloud_alt;strokeColor=#232F3E;fillColor=none;verticalAlign=top;align=left;spacingLeft=30;fontColor=#232F3E;dashed=0;movable=1;resizable=1;rotatable=1;deletable=1;editable=1;locked=0;connectable=1;" parent="1" vertex="1">
          <mxGeometry x="-130" y="-60" width="1280" height="890" as="geometry" />
        </mxCell>
        <mxCell id="0l7i1u_6Aww9R5WyrGbd-31" value="" style="group" parent="0l7i1u_6Aww9R5WyrGbd-30" vertex="1" connectable="0">
          <mxGeometry x="562.1600000000001" y="20" width="93" height="46" as="geometry" />
        </mxCell>
        <mxCell id="0l7i1u_6Aww9R5WyrGbd-32" value="" style="sketch=0;points=[[0,0,0],[0.25,0,0],[0.5,0,0],[0.75,0,0],[1,0,0],[0,1,0],[0.25,1,0],[0.5,1,0],[0.75,1,0],[1,1,0],[0,0.25,0],[0,0.5,0],[0,0.75,0],[1,0.25,0],[1,0.5,0],[1,0.75,0]];outlineConnect=0;fontColor=#232F3E;fillColor=#8C4FFF;strokeColor=#ffffff;dashed=0;verticalLabelPosition=bottom;verticalAlign=top;align=center;html=1;fontSize=12;fontStyle=0;aspect=fixed;shape=mxgraph.aws4.resourceIcon;resIcon=mxgraph.aws4.route_53;" parent="0l7i1u_6Aww9R5WyrGbd-31" vertex="1">
          <mxGeometry width="46" height="46" as="geometry" />
        </mxCell>
        <mxCell id="0l7i1u_6Aww9R5WyrGbd-33" value="" style="sketch=0;points=[[0,0,0],[0.25,0,0],[0.5,0,0],[0.75,0,0],[1,0,0],[0,1,0],[0.25,1,0],[0.5,1,0],[0.75,1,0],[1,1,0],[0,0.25,0],[0,0.5,0],[0,0.75,0],[1,0.25,0],[1,0.5,0],[1,0.75,0]];outlineConnect=0;fontColor=#232F3E;fillColor=#8C4FFF;strokeColor=#ffffff;dashed=0;verticalLabelPosition=bottom;verticalAlign=top;align=center;html=1;fontSize=12;fontStyle=0;aspect=fixed;shape=mxgraph.aws4.resourceIcon;resIcon=mxgraph.aws4.cloudfront;" parent="0l7i1u_6Aww9R5WyrGbd-31" vertex="1">
          <mxGeometry x="53" y="3" width="40" height="40" as="geometry" />
        </mxCell>
        <mxCell id="0l7i1u_6Aww9R5WyrGbd-34" value="" style="sketch=0;outlineConnect=0;fontColor=#232F3E;gradientColor=none;fillColor=#E7157B;strokeColor=none;dashed=0;verticalLabelPosition=bottom;verticalAlign=top;align=center;html=1;fontSize=12;fontStyle=0;aspect=fixed;pointerEvents=1;shape=mxgraph.aws4.monitoring;" parent="0l7i1u_6Aww9R5WyrGbd-30" vertex="1">
          <mxGeometry x="690" y="70" width="37.66" height="28" as="geometry" />
        </mxCell>
        <mxCell id="0l7i1u_6Aww9R5WyrGbd-35" value="" style="endArrow=none;dashed=1;html=1;rounded=0;" parent="0l7i1u_6Aww9R5WyrGbd-30" source="0l7i1u_6Aww9R5WyrGbd-34" target="0l7i1u_6Aww9R5WyrGbd-33" edge="1">
          <mxGeometry width="50" height="50" relative="1" as="geometry">
            <mxPoint x="690" y="110" as="sourcePoint" />
            <mxPoint x="690" y="38" as="targetPoint" />
          </mxGeometry>
        </mxCell>
        <mxCell id="0l7i1u_6Aww9R5WyrGbd-36" value="" style="endArrow=none;dashed=1;html=1;rounded=0;" parent="0l7i1u_6Aww9R5WyrGbd-30" source="0l7i1u_6Aww9R5WyrGbd-37" target="0l7i1u_6Aww9R5WyrGbd-42" edge="1">
          <mxGeometry width="50" height="50" relative="1" as="geometry">
            <mxPoint x="700" y="76" as="sourcePoint" />
            <mxPoint x="635" y="120" as="targetPoint" />
          </mxGeometry>
        </mxCell>
        <mxCell id="0l7i1u_6Aww9R5WyrGbd-37" value="" style="sketch=0;outlineConnect=0;fontColor=#232F3E;gradientColor=none;fillColor=#8C4FFF;strokeColor=none;dashed=0;verticalLabelPosition=bottom;verticalAlign=top;align=center;html=1;fontSize=12;fontStyle=0;aspect=fixed;pointerEvents=1;shape=mxgraph.aws4.internet_gateway;" parent="0l7i1u_6Aww9R5WyrGbd-30" vertex="1">
          <mxGeometry x="615" y="128" width="40" height="40" as="geometry" />
        </mxCell>
        <mxCell id="0l7i1u_6Aww9R5WyrGbd-38" value="" style="endArrow=none;dashed=1;html=1;rounded=0;" parent="0l7i1u_6Aww9R5WyrGbd-30" source="0l7i1u_6Aww9R5WyrGbd-37" target="0l7i1u_6Aww9R5WyrGbd-34" edge="1">
          <mxGeometry width="50" height="50" relative="1" as="geometry">
            <mxPoint x="833" y="345" as="sourcePoint" />
            <mxPoint x="635" y="158" as="targetPoint" />
          </mxGeometry>
        </mxCell>
        <mxCell id="0l7i1u_6Aww9R5WyrGbd-39" value="" style="outlineConnect=0;dashed=0;verticalLabelPosition=bottom;verticalAlign=top;align=center;html=1;shape=mxgraph.aws3.lambda_function;fillColor=#F58534;gradientColor=none;" parent="0l7i1u_6Aww9R5WyrGbd-30" vertex="1">
          <mxGeometry x="832.93" y="793" width="69" height="72" as="geometry" />
        </mxCell>
        <mxCell id="0l7i1u_6Aww9R5WyrGbd-40" value="" style="sketch=0;points=[[0,0,0],[0.25,0,0],[0.5,0,0],[0.75,0,0],[1,0,0],[0,1,0],[0.25,1,0],[0.5,1,0],[0.75,1,0],[1,1,0],[0,0.25,0],[0,0.5,0],[0,0.75,0],[1,0.25,0],[1,0.5,0],[1,0.75,0]];outlineConnect=0;fontColor=#232F3E;fillColor=#7AA116;strokeColor=#ffffff;dashed=0;verticalLabelPosition=bottom;verticalAlign=top;align=center;html=1;fontSize=12;fontStyle=0;aspect=fixed;shape=mxgraph.aws4.resourceIcon;resIcon=mxgraph.aws4.glacier;" parent="0l7i1u_6Aww9R5WyrGbd-30" vertex="1">
          <mxGeometry x="937" y="790" width="78" height="78" as="geometry" />
        </mxCell>
        <mxCell id="0l7i1u_6Aww9R5WyrGbd-41" value="" style="endArrow=none;dashed=1;html=1;rounded=0;entryX=1;entryY=0.5;entryDx=0;entryDy=0;entryPerimeter=0;" parent="0l7i1u_6Aww9R5WyrGbd-30" source="0l7i1u_6Aww9R5WyrGbd-40" target="0l7i1u_6Aww9R5WyrGbd-39" edge="1">
          <mxGeometry width="50" height="50" relative="1" as="geometry">
            <mxPoint x="1101.07" y="634" as="sourcePoint" />
            <mxPoint x="1101.07" y="730" as="targetPoint" />
          </mxGeometry>
        </mxCell>
        <mxCell id="0l7i1u_6Aww9R5WyrGbd-42" value="" style="sketch=0;outlineConnect=0;fontColor=#232F3E;gradientColor=none;fillColor=#8C4FFF;strokeColor=none;dashed=0;verticalLabelPosition=bottom;verticalAlign=top;align=center;html=1;fontSize=12;fontStyle=0;aspect=fixed;pointerEvents=1;shape=mxgraph.aws4.application_load_balancer;" parent="0l7i1u_6Aww9R5WyrGbd-30" vertex="1">
          <mxGeometry x="611" y="190" width="48" height="48" as="geometry" />
        </mxCell>
        <mxCell id="0l7i1u_6Aww9R5WyrGbd-43" value="Front-end" style="points=[[0,0],[0.25,0],[0.5,0],[0.75,0],[1,0],[1,0.25],[1,0.5],[1,0.75],[1,1],[0.75,1],[0.5,1],[0.25,1],[0,1],[0,0.75],[0,0.5],[0,0.25]];outlineConnect=0;gradientColor=none;html=1;whiteSpace=wrap;fontSize=12;fontStyle=0;container=0;pointerEvents=0;collapsible=0;recursiveResize=0;shape=mxgraph.aws4.group;grIcon=mxgraph.aws4.group_security_group;grStroke=0;strokeColor=#7AA116;fillColor=#F2F6E8;verticalAlign=top;align=left;spacingLeft=30;fontColor=#248814;dashed=0;" parent="0l7i1u_6Aww9R5WyrGbd-30" vertex="1">
          <mxGeometry x="670" y="264" width="530" height="206" as="geometry" />
        </mxCell>
        <mxCell id="0l7i1u_6Aww9R5WyrGbd-44" value="" style="endArrow=none;dashed=1;html=1;rounded=0;" parent="0l7i1u_6Aww9R5WyrGbd-30" source="0l7i1u_6Aww9R5WyrGbd-56" target="0l7i1u_6Aww9R5WyrGbd-42" edge="1">
          <mxGeometry width="50" height="50" relative="1" as="geometry">
            <mxPoint x="930.5" y="327.74983096686947" as="sourcePoint" />
            <mxPoint x="1195" y="212" as="targetPoint" />
          </mxGeometry>
        </mxCell>
        <mxCell id="0l7i1u_6Aww9R5WyrGbd-45" value="" style="sketch=0;outlineConnect=0;fontColor=#232F3E;gradientColor=none;fillColor=#8C4FFF;strokeColor=none;dashed=0;verticalLabelPosition=bottom;verticalAlign=top;align=center;html=1;fontSize=12;fontStyle=0;aspect=fixed;pointerEvents=1;shape=mxgraph.aws4.nat_gateway;" parent="0l7i1u_6Aww9R5WyrGbd-30" vertex="1">
          <mxGeometry x="1023.75" y="330" width="78" height="78" as="geometry" />
        </mxCell>
        <mxCell id="0l7i1u_6Aww9R5WyrGbd-46" value="Back-end &amp;amp; DB" style="points=[[0,0],[0.25,0],[0.5,0],[0.75,0],[1,0],[1,0.25],[1,0.5],[1,0.75],[1,1],[0.75,1],[0.5,1],[0.25,1],[0,1],[0,0.75],[0,0.5],[0,0.25]];outlineConnect=0;gradientColor=none;html=1;whiteSpace=wrap;fontSize=12;fontStyle=0;container=0;pointerEvents=0;collapsible=0;recursiveResize=0;shape=mxgraph.aws4.group;grIcon=mxgraph.aws4.group_security_group;grStroke=0;strokeColor=#00A4A6;fillColor=#E6F6F7;verticalAlign=top;align=left;spacingLeft=30;fontColor=#147EBA;dashed=0;" parent="0l7i1u_6Aww9R5WyrGbd-30" vertex="1">
          <mxGeometry x="670" y="480" width="530" height="210" as="geometry" />
        </mxCell>
        <mxCell id="0l7i1u_6Aww9R5WyrGbd-47" value="" style="sketch=0;points=[[0,0,0],[0.25,0,0],[0.5,0,0],[0.75,0,0],[1,0,0],[0,1,0],[0.25,1,0],[0.5,1,0],[0.75,1,0],[1,1,0],[0,0.25,0],[0,0.5,0],[0,0.75,0],[1,0.25,0],[1,0.5,0],[1,0.75,0]];outlineConnect=0;fontColor=#232F3E;fillColor=#C925D1;strokeColor=#ffffff;dashed=0;verticalLabelPosition=bottom;verticalAlign=top;align=center;html=1;fontSize=12;fontStyle=0;aspect=fixed;shape=mxgraph.aws4.resourceIcon;resIcon=mxgraph.aws4.rds;" parent="0l7i1u_6Aww9R5WyrGbd-30" vertex="1">
          <mxGeometry x="730.5" y="600.25" width="59.5" height="59.5" as="geometry" />
        </mxCell>
        <mxCell id="0l7i1u_6Aww9R5WyrGbd-48" value="" style="sketch=0;points=[[0,0,0],[0.25,0,0],[0.5,0,0],[0.75,0,0],[1,0,0],[0,1,0],[0.25,1,0],[0.5,1,0],[0.75,1,0],[1,1,0],[0,0.25,0],[0,0.5,0],[0,0.75,0],[1,0.25,0],[1,0.5,0],[1,0.75,0]];outlineConnect=0;fontColor=#232F3E;fillColor=#C925D1;strokeColor=#ffffff;dashed=0;verticalLabelPosition=bottom;verticalAlign=top;align=center;html=1;fontSize=12;fontStyle=0;aspect=fixed;shape=mxgraph.aws4.resourceIcon;resIcon=mxgraph.aws4.elasticache;" parent="0l7i1u_6Aww9R5WyrGbd-30" vertex="1">
          <mxGeometry x="730.5" y="510.25" width="60" height="60" as="geometry" />
        </mxCell>
        <mxCell id="0l7i1u_6Aww9R5WyrGbd-49" value="" style="endArrow=none;dashed=1;html=1;rounded=0;exitX=1;exitY=0.5;exitDx=0;exitDy=0;exitPerimeter=0;entryX=0;entryY=0;entryDx=0;entryDy=0;entryPerimeter=0;" parent="0l7i1u_6Aww9R5WyrGbd-30" source="0l7i1u_6Aww9R5WyrGbd-48" target="0l7i1u_6Aww9R5WyrGbd-53" edge="1">
          <mxGeometry width="50" height="50" relative="1" as="geometry">
            <mxPoint x="952.75" y="590" as="sourcePoint" />
            <mxPoint x="728.75" y="543.6774193548385" as="targetPoint" />
          </mxGeometry>
        </mxCell>
        <mxCell id="0l7i1u_6Aww9R5WyrGbd-50" value="" style="endArrow=none;dashed=1;html=1;rounded=0;entryX=0;entryY=1;entryDx=0;entryDy=0;entryPerimeter=0;" parent="0l7i1u_6Aww9R5WyrGbd-30" source="0l7i1u_6Aww9R5WyrGbd-47" target="0l7i1u_6Aww9R5WyrGbd-53" edge="1">
          <mxGeometry width="50" height="50" relative="1" as="geometry">
            <mxPoint x="952.75" y="590" as="sourcePoint" />
            <mxPoint x="728.75" y="555" as="targetPoint" />
          </mxGeometry>
        </mxCell>
        <mxCell id="0l7i1u_6Aww9R5WyrGbd-53" value="" style="sketch=0;points=[[0,0,0],[0.25,0,0],[0.5,0,0],[0.75,0,0],[1,0,0],[0,1,0],[0.25,1,0],[0.5,1,0],[0.75,1,0],[1,1,0],[0,0.25,0],[0,0.5,0],[0,0.75,0],[1,0.25,0],[1,0.5,0],[1,0.75,0]];outlineConnect=0;fontColor=#232F3E;fillColor=#ED7100;strokeColor=#ffffff;dashed=0;verticalLabelPosition=bottom;verticalAlign=top;align=center;html=1;fontSize=12;fontStyle=0;aspect=fixed;shape=mxgraph.aws4.resourceIcon;resIcon=mxgraph.aws4.ec2;" parent="0l7i1u_6Aww9R5WyrGbd-30" vertex="1">
          <mxGeometry x="937" y="546" width="78" height="78" as="geometry" />
        </mxCell>
        <mxCell id="0l7i1u_6Aww9R5WyrGbd-54" value="" style="sketch=0;points=[[0,0,0],[0.25,0,0],[0.5,0,0],[0.75,0,0],[1,0,0],[0,1,0],[0.25,1,0],[0.5,1,0],[0.75,1,0],[1,1,0],[0,0.25,0],[0,0.5,0],[0,0.75,0],[1,0.25,0],[1,0.5,0],[1,0.75,0]];outlineConnect=0;fontColor=#232F3E;fillColor=#ED7100;strokeColor=#ffffff;dashed=0;verticalLabelPosition=bottom;verticalAlign=top;align=center;html=1;fontSize=12;fontStyle=0;aspect=fixed;shape=mxgraph.aws4.resourceIcon;resIcon=mxgraph.aws4.auto_scaling2;" parent="0l7i1u_6Aww9R5WyrGbd-30" vertex="1">
          <mxGeometry x="810.5" y="561" width="48" height="48" as="geometry" />
        </mxCell>
        <mxCell id="0l7i1u_6Aww9R5WyrGbd-55" value="" style="sketch=0;points=[[0,0,0],[0.25,0,0],[0.5,0,0],[0.75,0,0],[1,0,0],[0,1,0],[0.25,1,0],[0.5,1,0],[0.75,1,0],[1,1,0],[0,0.25,0],[0,0.5,0],[0,0.75,0],[1,0.25,0],[1,0.5,0],[1,0.75,0]];outlineConnect=0;fontColor=#232F3E;fillColor=#7AA116;strokeColor=#ffffff;dashed=0;verticalLabelPosition=bottom;verticalAlign=top;align=center;html=1;fontSize=12;fontStyle=0;aspect=fixed;shape=mxgraph.aws4.resourceIcon;resIcon=mxgraph.aws4.elastic_block_store;" parent="0l7i1u_6Aww9R5WyrGbd-30" vertex="1">
          <mxGeometry x="870.5" y="557.5" width="55" height="55" as="geometry" />
        </mxCell>
        <mxCell id="0l7i1u_6Aww9R5WyrGbd-56" value="" style="sketch=0;points=[[0,0,0],[0.25,0,0],[0.5,0,0],[0.75,0,0],[1,0,0],[0,1,0],[0.25,1,0],[0.5,1,0],[0.75,1,0],[1,1,0],[0,0.25,0],[0,0.5,0],[0,0.75,0],[1,0.25,0],[1,0.5,0],[1,0.75,0]];outlineConnect=0;fontColor=#232F3E;fillColor=#ED7100;strokeColor=#ffffff;dashed=0;verticalLabelPosition=bottom;verticalAlign=top;align=center;html=1;fontSize=12;fontStyle=0;aspect=fixed;shape=mxgraph.aws4.resourceIcon;resIcon=mxgraph.aws4.ec2;" parent="0l7i1u_6Aww9R5WyrGbd-30" vertex="1">
          <mxGeometry x="904.75" y="330" width="78" height="78" as="geometry" />
        </mxCell>
        <mxCell id="0l7i1u_6Aww9R5WyrGbd-57" value="" style="sketch=0;points=[[0,0,0],[0.25,0,0],[0.5,0,0],[0.75,0,0],[1,0,0],[0,1,0],[0.25,1,0],[0.5,1,0],[0.75,1,0],[1,1,0],[0,0.25,0],[0,0.5,0],[0,0.75,0],[1,0.25,0],[1,0.5,0],[1,0.75,0]];outlineConnect=0;fontColor=#232F3E;fillColor=#ED7100;strokeColor=#ffffff;dashed=0;verticalLabelPosition=bottom;verticalAlign=top;align=center;html=1;fontSize=12;fontStyle=0;aspect=fixed;shape=mxgraph.aws4.resourceIcon;resIcon=mxgraph.aws4.auto_scaling2;" parent="0l7i1u_6Aww9R5WyrGbd-30" vertex="1">
          <mxGeometry x="778.25" y="345" width="48" height="48" as="geometry" />
        </mxCell>
        <mxCell id="0l7i1u_6Aww9R5WyrGbd-58" value="" style="sketch=0;points=[[0,0,0],[0.25,0,0],[0.5,0,0],[0.75,0,0],[1,0,0],[0,1,0],[0.25,1,0],[0.5,1,0],[0.75,1,0],[1,1,0],[0,0.25,0],[0,0.5,0],[0,0.75,0],[1,0.25,0],[1,0.5,0],[1,0.75,0]];outlineConnect=0;fontColor=#232F3E;fillColor=#7AA116;strokeColor=#ffffff;dashed=0;verticalLabelPosition=bottom;verticalAlign=top;align=center;html=1;fontSize=12;fontStyle=0;aspect=fixed;shape=mxgraph.aws4.resourceIcon;resIcon=mxgraph.aws4.elastic_block_store;" parent="0l7i1u_6Aww9R5WyrGbd-30" vertex="1">
          <mxGeometry x="838.25" y="341.5" width="55" height="55" as="geometry" />
        </mxCell>
        <mxCell id="0l7i1u_6Aww9R5WyrGbd-60" value="" style="fillColor=none;strokeColor=#5A6C86;dashed=1;verticalAlign=top;fontStyle=0;fontColor=#5A6C86;whiteSpace=wrap;html=1;" parent="0l7i1u_6Aww9R5WyrGbd-30" vertex="1">
          <mxGeometry x="768.25" y="304" width="240.5" height="130" as="geometry" />
        </mxCell>
        <mxCell id="igtpQacaPrsqMWLBPYPH-4" value="Availability Zone" style="fillColor=none;strokeColor=#147EBA;dashed=1;verticalAlign=top;fontStyle=0;fontColor=#147EBA;whiteSpace=wrap;html=1;movable=1;resizable=1;rotatable=1;deletable=1;editable=1;locked=0;connectable=1;" vertex="1" parent="0l7i1u_6Aww9R5WyrGbd-30">
          <mxGeometry x="60" y="120" width="570" height="660" as="geometry" />
        </mxCell>
        <mxCell id="igtpQacaPrsqMWLBPYPH-6" value="" style="sketch=0;points=[[0,0,0],[0.25,0,0],[0.5,0,0],[0.75,0,0],[1,0,0],[0,1,0],[0.25,1,0],[0.5,1,0],[0.75,1,0],[1,1,0],[0,0.25,0],[0,0.5,0],[0,0.75,0],[1,0.25,0],[1,0.5,0],[1,0.75,0]];points=[[0,0,0],[0.25,0,0],[0.5,0,0],[0.75,0,0],[1,0,0],[0,1,0],[0.25,1,0],[0.5,1,0],[0.75,1,0],[1,1,0],[0,0.25,0],[0,0.5,0],[0,0.75,0],[1,0.25,0],[1,0.5,0],[1,0.75,0]];outlineConnect=0;fontColor=#232F3E;fillColor=#E7157B;strokeColor=#ffffff;dashed=0;verticalLabelPosition=bottom;verticalAlign=top;align=center;html=1;fontSize=12;fontStyle=0;aspect=fixed;shape=mxgraph.aws4.resourceIcon;resIcon=mxgraph.aws4.cloudwatch_2;" vertex="1" parent="0l7i1u_6Aww9R5WyrGbd-30">
          <mxGeometry x="655.16" y="790" width="78" height="78" as="geometry" />
        </mxCell>
        <mxCell id="0l7i1u_6Aww9R5WyrGbd-52" value="" style="endArrow=none;dashed=1;html=1;rounded=0;exitX=0.5;exitY=1;exitDx=0;exitDy=0;exitPerimeter=0;entryX=1;entryY=0.5;entryDx=0;entryDy=0;entryPerimeter=0;" parent="0l7i1u_6Aww9R5WyrGbd-30" source="0l7i1u_6Aww9R5WyrGbd-53" target="igtpQacaPrsqMWLBPYPH-6" edge="1">
          <mxGeometry width="50" height="50" relative="1" as="geometry">
            <mxPoint x="1080.5" y="596.5" as="sourcePoint" />
            <mxPoint x="870" y="1052" as="targetPoint" />
          </mxGeometry>
        </mxCell>
        <mxCell id="igtpQacaPrsqMWLBPYPH-12" value="" style="endArrow=none;dashed=1;html=1;rounded=0;exitX=0;exitY=0.5;exitDx=0;exitDy=0;exitPerimeter=0;entryX=1;entryY=0.5;entryDx=0;entryDy=0;entryPerimeter=0;" edge="1" parent="0l7i1u_6Aww9R5WyrGbd-30" source="0l7i1u_6Aww9R5WyrGbd-39" target="igtpQacaPrsqMWLBPYPH-6">
          <mxGeometry width="50" height="50" relative="1" as="geometry">
            <mxPoint x="665" y="839" as="sourcePoint" />
            <mxPoint x="740" y="830" as="targetPoint" />
          </mxGeometry>
        </mxCell>
        <mxCell id="0l7i1u_6Aww9R5WyrGbd-65" value="Front-end" style="points=[[0,0],[0.25,0],[0.5,0],[0.75,0],[1,0],[1,0.25],[1,0.5],[1,0.75],[1,1],[0.75,1],[0.5,1],[0.25,1],[0,1],[0,0.75],[0,0.5],[0,0.25]];outlineConnect=0;gradientColor=none;html=1;whiteSpace=wrap;fontSize=12;fontStyle=0;container=0;pointerEvents=0;collapsible=0;recursiveResize=0;shape=mxgraph.aws4.group;grIcon=mxgraph.aws4.group_security_group;grStroke=0;strokeColor=#7AA116;fillColor=#F2F6E8;verticalAlign=top;align=left;spacingLeft=30;fontColor=#248814;dashed=0;" parent="1" vertex="1">
          <mxGeometry x="-40" y="204" width="530" height="206" as="geometry" />
        </mxCell>
        <mxCell id="0l7i1u_6Aww9R5WyrGbd-66" value="" style="endArrow=none;dashed=1;html=1;rounded=0;" parent="1" source="0l7i1u_6Aww9R5WyrGbd-82" target="0l7i1u_6Aww9R5WyrGbd-42" edge="1">
          <mxGeometry width="50" height="50" relative="1" as="geometry">
            <mxPoint x="220.5" y="267.74983096686947" as="sourcePoint" />
            <mxPoint x="508" y="169" as="targetPoint" />
          </mxGeometry>
        </mxCell>
        <mxCell id="0l7i1u_6Aww9R5WyrGbd-67" value="" style="sketch=0;outlineConnect=0;fontColor=#232F3E;gradientColor=none;fillColor=#8C4FFF;strokeColor=none;dashed=0;verticalLabelPosition=bottom;verticalAlign=top;align=center;html=1;fontSize=12;fontStyle=0;aspect=fixed;pointerEvents=1;shape=mxgraph.aws4.nat_gateway;" parent="1" vertex="1">
          <mxGeometry x="313.75" y="270" width="78" height="78" as="geometry" />
        </mxCell>
        <mxCell id="0l7i1u_6Aww9R5WyrGbd-68" value="Back-end &amp;amp; DB" style="points=[[0,0],[0.25,0],[0.5,0],[0.75,0],[1,0],[1,0.25],[1,0.5],[1,0.75],[1,1],[0.75,1],[0.5,1],[0.25,1],[0,1],[0,0.75],[0,0.5],[0,0.25]];outlineConnect=0;gradientColor=none;html=1;whiteSpace=wrap;fontSize=12;fontStyle=0;container=0;pointerEvents=0;collapsible=0;recursiveResize=0;shape=mxgraph.aws4.group;grIcon=mxgraph.aws4.group_security_group;grStroke=0;strokeColor=#00A4A6;fillColor=#E6F6F7;verticalAlign=top;align=left;spacingLeft=30;fontColor=#147EBA;dashed=0;" parent="1" vertex="1">
          <mxGeometry x="-40" y="420" width="530" height="210" as="geometry" />
        </mxCell>
        <mxCell id="0l7i1u_6Aww9R5WyrGbd-69" value="" style="sketch=0;points=[[0,0,0],[0.25,0,0],[0.5,0,0],[0.75,0,0],[1,0,0],[0,1,0],[0.25,1,0],[0.5,1,0],[0.75,1,0],[1,1,0],[0,0.25,0],[0,0.5,0],[0,0.75,0],[1,0.25,0],[1,0.5,0],[1,0.75,0]];outlineConnect=0;fontColor=#232F3E;fillColor=#C925D1;strokeColor=#ffffff;dashed=0;verticalLabelPosition=bottom;verticalAlign=top;align=center;html=1;fontSize=12;fontStyle=0;aspect=fixed;shape=mxgraph.aws4.resourceIcon;resIcon=mxgraph.aws4.rds;" parent="1" vertex="1">
          <mxGeometry x="20.5" y="540.25" width="59.5" height="59.5" as="geometry" />
        </mxCell>
        <mxCell id="0l7i1u_6Aww9R5WyrGbd-70" value="" style="sketch=0;points=[[0,0,0],[0.25,0,0],[0.5,0,0],[0.75,0,0],[1,0,0],[0,1,0],[0.25,1,0],[0.5,1,0],[0.75,1,0],[1,1,0],[0,0.25,0],[0,0.5,0],[0,0.75,0],[1,0.25,0],[1,0.5,0],[1,0.75,0]];outlineConnect=0;fontColor=#232F3E;fillColor=#C925D1;strokeColor=#ffffff;dashed=0;verticalLabelPosition=bottom;verticalAlign=top;align=center;html=1;fontSize=12;fontStyle=0;aspect=fixed;shape=mxgraph.aws4.resourceIcon;resIcon=mxgraph.aws4.elasticache;" parent="1" vertex="1">
          <mxGeometry x="20.5" y="450.25" width="60" height="60" as="geometry" />
        </mxCell>
        <mxCell id="0l7i1u_6Aww9R5WyrGbd-71" value="" style="endArrow=none;dashed=1;html=1;rounded=0;exitX=1;exitY=0.5;exitDx=0;exitDy=0;exitPerimeter=0;entryX=0;entryY=0;entryDx=0;entryDy=0;entryPerimeter=0;" parent="1" source="0l7i1u_6Aww9R5WyrGbd-70" target="0l7i1u_6Aww9R5WyrGbd-75" edge="1">
          <mxGeometry width="50" height="50" relative="1" as="geometry">
            <mxPoint x="242.75" y="530" as="sourcePoint" />
            <mxPoint x="18.75" y="483.67741935483855" as="targetPoint" />
          </mxGeometry>
        </mxCell>
        <mxCell id="0l7i1u_6Aww9R5WyrGbd-72" value="" style="endArrow=none;dashed=1;html=1;rounded=0;entryX=0;entryY=1;entryDx=0;entryDy=0;entryPerimeter=0;" parent="1" source="0l7i1u_6Aww9R5WyrGbd-69" target="0l7i1u_6Aww9R5WyrGbd-75" edge="1">
          <mxGeometry width="50" height="50" relative="1" as="geometry">
            <mxPoint x="242.75" y="530" as="sourcePoint" />
            <mxPoint x="18.75" y="495" as="targetPoint" />
          </mxGeometry>
        </mxCell>
        <mxCell id="0l7i1u_6Aww9R5WyrGbd-74" value="" style="endArrow=none;dashed=1;html=1;rounded=0;exitX=0.5;exitY=1;exitDx=0;exitDy=0;exitPerimeter=0;entryX=0;entryY=0.5;entryDx=0;entryDy=0;entryPerimeter=0;" parent="1" source="0l7i1u_6Aww9R5WyrGbd-75" target="igtpQacaPrsqMWLBPYPH-6" edge="1">
          <mxGeometry width="50" height="50" relative="1" as="geometry">
            <mxPoint x="370.5" y="536.5" as="sourcePoint" />
            <mxPoint x="560" y="933" as="targetPoint" />
          </mxGeometry>
        </mxCell>
        <mxCell id="0l7i1u_6Aww9R5WyrGbd-75" value="" style="sketch=0;points=[[0,0,0],[0.25,0,0],[0.5,0,0],[0.75,0,0],[1,0,0],[0,1,0],[0.25,1,0],[0.5,1,0],[0.75,1,0],[1,1,0],[0,0.25,0],[0,0.5,0],[0,0.75,0],[1,0.25,0],[1,0.5,0],[1,0.75,0]];outlineConnect=0;fontColor=#232F3E;fillColor=#ED7100;strokeColor=#ffffff;dashed=0;verticalLabelPosition=bottom;verticalAlign=top;align=center;html=1;fontSize=12;fontStyle=0;aspect=fixed;shape=mxgraph.aws4.resourceIcon;resIcon=mxgraph.aws4.ec2;" parent="1" vertex="1">
          <mxGeometry x="227" y="486" width="78" height="78" as="geometry" />
        </mxCell>
        <mxCell id="0l7i1u_6Aww9R5WyrGbd-76" value="" style="sketch=0;points=[[0,0,0],[0.25,0,0],[0.5,0,0],[0.75,0,0],[1,0,0],[0,1,0],[0.25,1,0],[0.5,1,0],[0.75,1,0],[1,1,0],[0,0.25,0],[0,0.5,0],[0,0.75,0],[1,0.25,0],[1,0.5,0],[1,0.75,0]];outlineConnect=0;fontColor=#232F3E;fillColor=#ED7100;strokeColor=#ffffff;dashed=0;verticalLabelPosition=bottom;verticalAlign=top;align=center;html=1;fontSize=12;fontStyle=0;aspect=fixed;shape=mxgraph.aws4.resourceIcon;resIcon=mxgraph.aws4.auto_scaling2;" parent="1" vertex="1">
          <mxGeometry x="100.5" y="501" width="48" height="48" as="geometry" />
        </mxCell>
        <mxCell id="0l7i1u_6Aww9R5WyrGbd-77" value="" style="sketch=0;points=[[0,0,0],[0.25,0,0],[0.5,0,0],[0.75,0,0],[1,0,0],[0,1,0],[0.25,1,0],[0.5,1,0],[0.75,1,0],[1,1,0],[0,0.25,0],[0,0.5,0],[0,0.75,0],[1,0.25,0],[1,0.5,0],[1,0.75,0]];outlineConnect=0;fontColor=#232F3E;fillColor=#7AA116;strokeColor=#ffffff;dashed=0;verticalLabelPosition=bottom;verticalAlign=top;align=center;html=1;fontSize=12;fontStyle=0;aspect=fixed;shape=mxgraph.aws4.resourceIcon;resIcon=mxgraph.aws4.elastic_block_store;" parent="1" vertex="1">
          <mxGeometry x="160.5" y="497.5" width="55" height="55" as="geometry" />
        </mxCell>
        <mxCell id="0l7i1u_6Aww9R5WyrGbd-79" value="" style="outlineConnect=0;dashed=0;verticalLabelPosition=bottom;verticalAlign=top;align=center;html=1;shape=mxgraph.aws3.lambda_function;fillColor=#F58534;gradientColor=none;" parent="1" vertex="1">
          <mxGeometry x="356" y="733" width="69" height="72" as="geometry" />
        </mxCell>
        <mxCell id="0l7i1u_6Aww9R5WyrGbd-80" value="" style="sketch=0;points=[[0,0,0],[0.25,0,0],[0.5,0,0],[0.75,0,0],[1,0,0],[0,1,0],[0.25,1,0],[0.5,1,0],[0.75,1,0],[1,1,0],[0,0.25,0],[0,0.5,0],[0,0.75,0],[1,0.25,0],[1,0.5,0],[1,0.75,0]];outlineConnect=0;fontColor=#232F3E;fillColor=#7AA116;strokeColor=#ffffff;dashed=0;verticalLabelPosition=bottom;verticalAlign=top;align=center;html=1;fontSize=12;fontStyle=0;aspect=fixed;shape=mxgraph.aws4.resourceIcon;resIcon=mxgraph.aws4.glacier;" parent="1" vertex="1">
          <mxGeometry x="241" y="730" width="78" height="78" as="geometry" />
        </mxCell>
        <mxCell id="0l7i1u_6Aww9R5WyrGbd-81" value="" style="endArrow=none;dashed=1;html=1;rounded=0;entryX=0;entryY=0.5;entryDx=0;entryDy=0;entryPerimeter=0;" parent="1" source="0l7i1u_6Aww9R5WyrGbd-80" target="0l7i1u_6Aww9R5WyrGbd-79" edge="1">
          <mxGeometry width="50" height="50" relative="1" as="geometry">
            <mxPoint x="391" y="574" as="sourcePoint" />
            <mxPoint x="391" y="670" as="targetPoint" />
          </mxGeometry>
        </mxCell>
        <mxCell id="0l7i1u_6Aww9R5WyrGbd-82" value="" style="sketch=0;points=[[0,0,0],[0.25,0,0],[0.5,0,0],[0.75,0,0],[1,0,0],[0,1,0],[0.25,1,0],[0.5,1,0],[0.75,1,0],[1,1,0],[0,0.25,0],[0,0.5,0],[0,0.75,0],[1,0.25,0],[1,0.5,0],[1,0.75,0]];outlineConnect=0;fontColor=#232F3E;fillColor=#ED7100;strokeColor=#ffffff;dashed=0;verticalLabelPosition=bottom;verticalAlign=top;align=center;html=1;fontSize=12;fontStyle=0;aspect=fixed;shape=mxgraph.aws4.resourceIcon;resIcon=mxgraph.aws4.ec2;" parent="1" vertex="1">
          <mxGeometry x="194.75" y="270" width="78" height="78" as="geometry" />
        </mxCell>
        <mxCell id="0l7i1u_6Aww9R5WyrGbd-83" value="" style="sketch=0;points=[[0,0,0],[0.25,0,0],[0.5,0,0],[0.75,0,0],[1,0,0],[0,1,0],[0.25,1,0],[0.5,1,0],[0.75,1,0],[1,1,0],[0,0.25,0],[0,0.5,0],[0,0.75,0],[1,0.25,0],[1,0.5,0],[1,0.75,0]];outlineConnect=0;fontColor=#232F3E;fillColor=#ED7100;strokeColor=#ffffff;dashed=0;verticalLabelPosition=bottom;verticalAlign=top;align=center;html=1;fontSize=12;fontStyle=0;aspect=fixed;shape=mxgraph.aws4.resourceIcon;resIcon=mxgraph.aws4.auto_scaling2;" parent="1" vertex="1">
          <mxGeometry x="68.25" y="285" width="48" height="48" as="geometry" />
        </mxCell>
        <mxCell id="0l7i1u_6Aww9R5WyrGbd-84" value="" style="sketch=0;points=[[0,0,0],[0.25,0,0],[0.5,0,0],[0.75,0,0],[1,0,0],[0,1,0],[0.25,1,0],[0.5,1,0],[0.75,1,0],[1,1,0],[0,0.25,0],[0,0.5,0],[0,0.75,0],[1,0.25,0],[1,0.5,0],[1,0.75,0]];outlineConnect=0;fontColor=#232F3E;fillColor=#7AA116;strokeColor=#ffffff;dashed=0;verticalLabelPosition=bottom;verticalAlign=top;align=center;html=1;fontSize=12;fontStyle=0;aspect=fixed;shape=mxgraph.aws4.resourceIcon;resIcon=mxgraph.aws4.elastic_block_store;" parent="1" vertex="1">
          <mxGeometry x="128.25" y="281.5" width="55" height="55" as="geometry" />
        </mxCell>
        <mxCell id="0l7i1u_6Aww9R5WyrGbd-85" value="" style="endArrow=none;dashed=1;html=1;rounded=0;entryX=0.5;entryY=1;entryDx=0;entryDy=0;entryPerimeter=0;" parent="1" source="0l7i1u_6Aww9R5WyrGbd-89" target="0l7i1u_6Aww9R5WyrGbd-82" edge="1">
          <mxGeometry width="50" height="50" relative="1" as="geometry">
            <mxPoint x="255.25" y="396" as="sourcePoint" />
            <mxPoint x="380" y="370" as="targetPoint" />
          </mxGeometry>
        </mxCell>
        <mxCell id="0l7i1u_6Aww9R5WyrGbd-86" value="" style="fillColor=none;strokeColor=#5A6C86;dashed=1;verticalAlign=top;fontStyle=0;fontColor=#5A6C86;whiteSpace=wrap;html=1;" parent="1" vertex="1">
          <mxGeometry x="58.25" y="244" width="240.5" height="130" as="geometry" />
        </mxCell>
        <mxCell id="0l7i1u_6Aww9R5WyrGbd-87" value="" style="endArrow=none;dashed=1;html=1;rounded=0;" parent="1" source="0l7i1u_6Aww9R5WyrGbd-75" target="0l7i1u_6Aww9R5WyrGbd-89" edge="1">
          <mxGeometry width="50" height="50" relative="1" as="geometry">
            <mxPoint x="220" y="510" as="sourcePoint" />
            <mxPoint x="266" y="444" as="targetPoint" />
          </mxGeometry>
        </mxCell>
        <mxCell id="0l7i1u_6Aww9R5WyrGbd-89" value="" style="sketch=0;outlineConnect=0;fontColor=#232F3E;gradientColor=none;fillColor=#8C4FFF;strokeColor=none;dashed=0;verticalLabelPosition=bottom;verticalAlign=top;align=center;html=1;fontSize=12;fontStyle=0;aspect=fixed;pointerEvents=1;shape=mxgraph.aws4.application_load_balancer;" parent="1" vertex="1">
          <mxGeometry x="480" y="394.25" width="50" height="50" as="geometry" />
        </mxCell>
        <mxCell id="0l7i1u_6Aww9R5WyrGbd-59" value="" style="endArrow=none;dashed=1;html=1;rounded=0;entryX=0.5;entryY=1;entryDx=0;entryDy=0;entryPerimeter=0;" parent="1" source="0l7i1u_6Aww9R5WyrGbd-89" target="0l7i1u_6Aww9R5WyrGbd-56" edge="1">
          <mxGeometry width="50" height="50" relative="1" as="geometry">
            <mxPoint x="834.6844676975043" y="394.2505681689054" as="sourcePoint" />
            <mxPoint x="960" y="370" as="targetPoint" />
          </mxGeometry>
        </mxCell>
        <mxCell id="0l7i1u_6Aww9R5WyrGbd-61" value="" style="endArrow=none;dashed=1;html=1;rounded=0;" parent="1" source="0l7i1u_6Aww9R5WyrGbd-53" target="0l7i1u_6Aww9R5WyrGbd-89" edge="1">
          <mxGeometry width="50" height="50" relative="1" as="geometry">
            <mxPoint x="800" y="510" as="sourcePoint" />
            <mxPoint x="846" y="444.2494318310951" as="targetPoint" />
          </mxGeometry>
        </mxCell>
        <mxCell id="igtpQacaPrsqMWLBPYPH-5" value="Availability Zone" style="fillColor=none;strokeColor=#147EBA;dashed=1;verticalAlign=top;fontStyle=0;fontColor=#147EBA;whiteSpace=wrap;html=1;movable=1;resizable=1;rotatable=1;deletable=1;editable=1;locked=0;connectable=1;" vertex="1" parent="1">
          <mxGeometry x="510" y="60" width="570" height="660" as="geometry" />
        </mxCell>
        <mxCell id="igtpQacaPrsqMWLBPYPH-7" value="" style="endArrow=none;dashed=1;html=1;rounded=0;entryX=1;entryY=0.5;entryDx=0;entryDy=0;entryPerimeter=0;" edge="1" parent="1" source="igtpQacaPrsqMWLBPYPH-6" target="0l7i1u_6Aww9R5WyrGbd-79">
          <mxGeometry width="50" height="50" relative="1" as="geometry">
            <mxPoint x="329" y="779" as="sourcePoint" />
            <mxPoint x="366" y="779" as="targetPoint" />
          </mxGeometry>
        </mxCell>
        <mxCell id="igtpQacaPrsqMWLBPYPH-9" value="" style="fillColor=none;strokeColor=#5A6C86;dashed=1;verticalAlign=top;fontStyle=0;fontColor=#5A6C86;whiteSpace=wrap;html=1;" vertex="1" parent="1">
          <mxGeometry x="670.5" y="460" width="240.5" height="130" as="geometry" />
        </mxCell>
        <mxCell id="igtpQacaPrsqMWLBPYPH-10" value="" style="fillColor=none;strokeColor=#5A6C86;dashed=1;verticalAlign=top;fontStyle=0;fontColor=#5A6C86;whiteSpace=wrap;html=1;" vertex="1" parent="1">
          <mxGeometry x="90.5" y="460" width="240.5" height="130" as="geometry" />
        </mxCell>
        <mxCell id="0l7i1u_6Aww9R5WyrGbd-95" value="Untitled Layer" parent="0" />
        <mxCell id="0l7i1u_6Aww9R5WyrGbd-99" value="" style="sketch=0;outlineConnect=0;fontColor=#232F3E;gradientColor=none;fillColor=#232F3D;strokeColor=none;dashed=0;verticalLabelPosition=bottom;verticalAlign=top;align=center;html=1;fontSize=12;fontStyle=0;aspect=fixed;pointerEvents=1;shape=mxgraph.aws4.internet_alt2;" parent="0l7i1u_6Aww9R5WyrGbd-95" vertex="1">
          <mxGeometry x="447.16" y="-210.00000000000003" width="78" height="78" as="geometry" />
        </mxCell>
        <mxCell id="0l7i1u_6Aww9R5WyrGbd-100" value="" style="sketch=0;outlineConnect=0;fontColor=#232F3E;gradientColor=none;fillColor=#232F3D;strokeColor=none;dashed=0;verticalLabelPosition=bottom;verticalAlign=top;align=center;html=1;fontSize=12;fontStyle=0;aspect=fixed;pointerEvents=1;shape=mxgraph.aws4.user;" parent="0l7i1u_6Aww9R5WyrGbd-95" vertex="1">
          <mxGeometry x="447.16" y="-340" width="78" height="78" as="geometry" />
        </mxCell>
        <mxCell id="0l7i1u_6Aww9R5WyrGbd-101" value="" style="endArrow=none;dashed=1;html=1;rounded=0;" parent="0l7i1u_6Aww9R5WyrGbd-95" source="0l7i1u_6Aww9R5WyrGbd-99" target="0l7i1u_6Aww9R5WyrGbd-100" edge="1">
          <mxGeometry width="50" height="50" relative="1" as="geometry">
            <mxPoint x="752.34" y="2.000000000000007" as="sourcePoint" />
            <mxPoint x="650.34" y="-130" as="targetPoint" />
          </mxGeometry>
        </mxCell>
        <mxCell id="0l7i1u_6Aww9R5WyrGbd-102" value="" style="endArrow=none;dashed=1;html=1;rounded=0;entryX=0.492;entryY=1.154;entryDx=0;entryDy=0;entryPerimeter=0;exitX=0;exitY=0;exitDx=0;exitDy=0;exitPerimeter=0;" parent="0l7i1u_6Aww9R5WyrGbd-95" source="0l7i1u_6Aww9R5WyrGbd-33" target="0l7i1u_6Aww9R5WyrGbd-99" edge="1">
          <mxGeometry width="50" height="50" relative="1" as="geometry">
            <mxPoint x="485" y="-37" as="sourcePoint" />
            <mxPoint x="488.75" y="110" as="targetPoint" />
          </mxGeometry>
        </mxCell>
      </root>
    </mxGraphModel>
  </diagram>
</mxfile>
